<svg xmlns="http://www.w3.org/2000/svg" viewBox="0 0 128.44 128.36">
  <defs>
    <style>
      .cls-1 {
        fill: #2867b2;
      }

      .cls-2 {
        fill: #5d8dc4;
      }

      .cls-3 {
        fill: #c8d8eb;
      }
    </style>
  </defs>
  <g id="Layer_2" data-name="Layer 2">
    <g id="Layer_1-2" data-name="Layer 1">
      <path class="cls-1"
        d="M120.29,128.36h-.48a8.28,8.28,0,0,0-1.38-.23H9.56a8.28,8.28,0,0,0-1.38.23H7.7a1.67,1.67,0,0,0-.35-.26c-5.11-1.62-7.35-4.66-7.35-10V9.86C0,4,4,0,9.82,0H118.57a9.39,9.39,0,0,1,9.67,8.57c0,.43,0,.87,0,1.31V118.43c0,.44,0,.88.05,1.32a9.36,9.36,0,0,1-7.6,8.38A1.29,1.29,0,0,0,120.29,128.36ZM69,109.19v-1.56c0-10,0-20,0-29.93a28.31,28.31,0,0,1,.59-5.82c1.35-6.18,5.5-9.11,11.85-8.56,4.25.38,6.91,2.44,7.9,6.6a35.07,35.07,0,0,1,.92,7.57c.1,10.09,0,20.19,0,30.29v1.38h18.87c0-.38,0-.69,0-1,0-10.82,0-21.63,0-32.45a58.68,58.68,0,0,0-1.2-13.08c-1.16-5-3.25-9.51-7.71-12.5-4-2.7-8.61-3.37-13.34-3.52a20,20,0,0,0-15.14,5.63c-1.3,1.26-2.36,2.77-3.67,4.33V48.22H50.08v61Zm-49.91-61v60.94H37.89V48.21Zm20.44-19.5a11,11,0,1,0-11,11A11,11,0,0,0,39.52,28.71Z" />
      <path class="cls-2" d="M8.18,128.36a8.28,8.28,0,0,1,1.38-.23H118.43a8.28,8.28,0,0,1,1.38.23Z" />
      <path class="cls-3"
        d="M128.24,8.57a.28.28,0,0,1,.2,0V119.73a.22.22,0,0,1-.19,0c0-.44-.05-.88-.05-1.32V9.88C128.2,9.44,128.23,9,128.24,8.57Z" />
    </g>
  </g>
</svg>