<svg xmlns="http://www.w3.org/2000/svg" xmlns:xlink="http://www.w3.org/1999/xlink" viewBox="0 0 421.64 204.78"><defs><style>.cls-1{fill:none;}.cls-2{clip-path:url(#clip-path);}.cls-3{fill:#1e00ff;}.cls-4{fill:#f500ff;}</style><clipPath id="clip-path" transform="translate(27.6 47.31)"><path class="cls-1" d="M375.47,88.53A32.8,32.8,0,0,1,362,85.8c-20.69-9.19-25.9-38.92-29.71-60.63C330.88,17,328.91,5.77,326.84,5c0,0-2,.33-5.65,10-2.51,6.72-5,15.61-7.65,25-8,28.6-13.53,46-22.5,46-8.59,0-13.44-16-20.42-42.36C266.55,28.27,260.4,5,255,5s-11.51,23.25-15.58,38.63C232.49,70,227.63,86,219,86S205.6,70,198.62,43.66C194.55,28.27,188.4,5,183,5s-11.51,23.25-15.58,38.63C160.49,70,155.63,86,147,86S133.6,70,126.62,43.66C122.55,28.27,116.4,5,111,5S99.53,28.27,95.46,43.65C88.49,70,83.63,86,75,86S62.32,70.91,56.12,46.26C51.8,29.06,45.88,5.5,38.87,5c-3.93-.3-15,6.89-33.41,79.13l-.61,2.42L0,85.32.62,82.9C19.59,8.39,31.2-.54,39.21,0,49.84.76,55.25,22.27,61,45c2.46,9.77,4.78,19,7.37,25.92C71.75,80,74.16,81,75,81c5.36,0,11.51-23.26,15.58-38.64C97.6,16,102.45,0,111,0s13.45,16,20.42,42.36C135.53,57.77,141.68,81,147,81s11.51-23.26,15.58-38.64C169.6,16,174.45,0,183,0s13.45,16,20.42,42.36C207.53,57.77,213.68,81,219,81s11.51-23.26,15.58-38.64C241.6,16,246.45,0,255,0s13.45,16,20.42,42.36C279.53,57.77,285.68,81,291,81c.81,0,3.79-.9,8.37-12.47,3.26-8.24,6.34-19.22,9.32-29.84,7-25,11.31-39.2,18.48-38.69,5.84.41,7.42,9.4,10,24.29,3.61,20.6,8.55,48.81,26.81,56.92,7,3.09,15.44,3.06,25.22-.09l2.38-.77,1.54,4.76-2.38.77A50.35,50.35,0,0,1,375.47,88.53Z"/></clipPath></defs><g id="Layer_2" data-name="Layer 2"><g id="Layer_1-2" data-name="Layer 1"><g class="cls-2"><rect class="cls-3" x="168.91" y="40.83" width="252.73" height="100"/><rect class="cls-4" x="-8.67" y="-18.26" width="197.91" height="146.67" transform="translate(14.32 80.96) rotate(-19.69)"/></g></g></g></svg>