<svg xmlns="http://www.w3.org/2000/svg" viewBox="0 0 1934.28 576.69">
    <defs>
        <style>
            .cls-1,
            .cls-20,
            .cls-3,
            .cls-4 {
                font-size: 200px;
                font-family: Raleway-Bold, Raleway;
                font-weight: 700;
                fill: #fff;
            }

            .cls-1 {
                fill: #e73427;
            }

            .cls-2 {
                letter-spacing: 0.01em;
            }

            .cls-3 {
                fill: #f8b92a;
            }

            .cls-4 {
                fill: #1d539f;
            }

            .cls-5 {
                fill: #393323;
            }

            .cls-6 {
                fill: #33201f;
            }

            .cls-7 {
                fill: #f9f189;
            }

            .cls-8 {
                fill: #f2e8b6;
            }

            .cls-9 {
                fill: #f5eab7;
            }

            .cls-10 {
                fill: #f6cf89;
            }

            .cls-11 {
                fill: #f6ebca;
            }

            .cls-12 {
                fill: #efc77d;
            }

            .cls-13 {
                fill: #f2cc89;
            }

            .cls-14 {
                fill: #f2e3c4;
            }

            .cls-15 {
                fill: #e0c496;
            }

            .cls-16 {
                fill: #e4bf7a;
            }

            .cls-17 {
                fill: #e1d4ad;
            }

            .cls-18 {
                fill: #fb8d8a;
            }

            .cls-19 {
                fill: #3c2914;
            }

            .cls-21 {
                letter-spacing: 0.31em;
                fill: #fff
            }
        </style>
    </defs>
    <g id="Layer_2" data-name="Layer 2">
        <g id="Layer_1-2" data-name="Layer 1"><text class="cls-1" transform="translate(0 295.41)">
                <tspan class="cls-2">FRENC</tspan>
                <tspan x="663.45" y="0">H</tspan>
            </text><text class="cls-3" transform="translate(0 427.41)">
                <tspan class="cls-2">FRENC</tspan>
                <tspan x="663.45" y="0">H</tspan>
            </text><text class="cls-4" transform="translate(0.25 359.1)">
                <tspan class="cls-2">FRENC</tspan>
                <tspan x="663.45" y="0">H</tspan>
            </text>
            <g id="Layer_2-2" data-name="Layer 2">
                <g id="Layer_1-2-2" data-name="Layer 1-2">
                    <path class="cls-5"
                        d="M780.05,189c-3.2-29-3.76-58.09.71-87,2-12.86,4.34-25.73,11-37.27,1-1.79,2-3.88,3.49-5.09,10-7.86,20.43-14.81,34-14.23a14.61,14.61,0,0,0,2.63-.45l1.21-10c.41-.35.7-.85,1.11-.91,9.66-1.33,19.29-3,29-3.81,9.08-.79,17,1.83,22.52,9.78,1.09,1.58,2.72,2.79,5,5.13,1.35-5.74,2.25-10.19,3.43-14.56,1.53-5.59,3.15-11.18,5-16.71,1.62-4.82,5.08-7.61,9.69-10.18,11.41-6.37,22.61-3.11,34-.86A8.82,8.82,0,0,1,950,9.71q3.07,13.93,5.67,27.95c2.55,13.72,4.58,27.55,7.44,41.22,3.49,16.58,8.14,33,6.13,50.83l14.52-1.66c4.89-17.64,16.5-31.23,27.94-44.55,18.86-22,35.16-45.71,51.21-69.68,1.27-1.91,2.62-3.76,3.91-5.59,3.81.51,5.59,2.93,7.06,5.54s3.45,3.37,6.29,3.54c11,.66,17.91,6.92,21.94,16.7,3.26,7.91,6.32,15.94,9.3,24,3.08,8.3-.7,14.91-5.63,21.14-2.41,3-5,5.92-7.24,9.08-.84,1.17-1,2.8-2,5.67,3.49-1.34,5.84-2.09,8-3.11,5.54-2.57,10.68-2.53,15.62,1.53a50.92,50.92,0,0,0,8.1,5.47c5.94,3.22,9.3,8.13,10.92,14.59,2.52,10.11,7,19.78,6.33,30.54,6.15-.08,10-2.53,11.92-8.52,2.54-8,6-15.62,8.67-23.55,4.54-13.66,13-23.46,26.62-28.52a31.39,31.39,0,0,0,5.09-2.28c10.69-6.24,21.13-4,31.24,1.22,8.23,4.19,10.55,9.58,8.12,18.5-5.59,20.65-11.18,41.32-19,61.3-3.39,8.64-6,17.61-8.76,26.48-.6,1.93-1.06,4.32-.47,6.13,3.87,11.88-1.07,21.92-6.53,31.79-1.44,2.6-3.67,4.76-5.53,7.12l-3.63-1.39a61.55,61.55,0,0,0,11.67-21.26,22.4,22.4,0,0,0-.05-14.11,47.6,47.6,0,0,0-4.67,2.1,628.91,628.91,0,0,1-71.26,36.68c-5.74,2.48-11.21,5.59-16.81,8.39l-41.84,17.46c-21.11,7.2-42.36,14-63.25,21.77a42,42,0,0,1-29.85.29c-1.1-.39-2.21-.7-3.31-1.1-14.5-5-29-10.06-43.53-14.84-32.94-10.85-64.36-25.29-95.54-40.28-18.87-9.08-37.73-18.1-54.09-31.51-.49-.41-1.67,0-2.53.1a13.36,13.36,0,0,1,2.45-2.76C783.34,190.41,781.6,189.79,780.05,189ZM1057.94,139l-.24.3c-1.68,1.68-1.68,1.68-.11,2.5a18.23,18.23,0,0,1,15.62,6.62q.42,6.29.85,12.57l-3.68,21.3c-.11.88-.2,1.76-.31,2.64q-2.6,16.14-5.18,32.28l-6.71,42.45c10.19-2.29,10.07-2.33,13.23-11.25,3.38-9.59,3.73-19.56,4.09-29.53.7-18.37,2.38-36.58,6.71-54.5,1.48-6.13,1.85-12.37-.56-18.46l-1.4-3.14c-.7-4.35-4.89-5.47-7.55-8-5.14-2.16-9.94-2.64-13.51,2.79l-.16.19Zm-175.26,94.8-3,8.51,5.27,1.83c-.44-3.86-.79-7-1.16-10.16v-5.9C883.29,230.67,883,232.22,882.68,233.77Zm35.36-130c-6.42.43-12.66,1.44-18.57,4.89,3.32,6.46,7.84,9.61,14.42,10.34a62.83,62.83,0,0,0,28.69-3.61l2.62-.69c-7.46-10.34-15.8-13.6-27.16-10.91Zm180.33-48.63c-1.79,2.71-3.07,6-5.44,8-5,4.2-6.73,9.35-4.12,15,1.54,3.31-.58,8,4.44,10.48,4.26-5.76,8.82-11.25,12.61-17.23,3.38-5.32,3.24-11-.87-16.24l-5.67-16.85a27.34,27.34,0,0,0-13.08-15.63c-2.2-1.21-4.53-2.1-7.89.15,5,5.68,9.15,11.7,14.57,16.12C1098.59,43.57,1101,48.25,1098.37,55.19ZM821.92,120.54c-2.6.4-3.2,2.22-3.21,4.46-1.43,5-4.56,10-2,15.37,7.5,15.31,12.58,32,24.36,44.9,4.11,4.5,6.5,9.3,5.94,15.42-.95,8.18-.7,16.63-6.66,23.84l10.48,4.66,5,2.25,7.34,2.87,12.62,6.21c4.83-18.16,9.42-35.39,14-52.63,1.39-3.41,2.84-6.82,4.22-10.24,1.68-4.15,1.48-7.87-1.57-11.58-7.06-8.61-13.79-17.47-20.76-26.19C865,131.35,858,123,851.13,114.47c-2.2-2.71-4.46-4.94-8.09-2.16-7.34.11-13.38,4-19.8,6.79ZM1065.49,18h-.07c-8.17,11.87-16,24-24.65,35.51-12.21,16.13-25.26,31.62-37.54,47.69a175.37,175.37,0,0,0-13,20.61c-3,5.34-2.23,6.56,3.38,8.57.66.23,1.29.54,2,.7,5.55,1.51,8.58,5.09,9.44,10.8.7,4.8,1.85,9.54,3.07,15.68,1.27-5.74,2.42-10.2,3.21-14.72a37.85,37.85,0,0,1,12.85-22.56c4.56-4,8.76-8.38,13.42-12.21,4.23-3.49,5.31-7.35,4.3-12.84-1.4-7.51-1.64-15.23-2.19-22.88-.19-2.59.25-5.11,3.24-6.29,6.25-2.48,12.45-5.07,18.68-7.6,3.14-1.28,5.77-.38,8.44,1.54a86.82,86.82,0,0,0,8.29,4.81h.05c1.85,2.93,3.18,3.17,7,1.23,2.87-4.14,6.08-8.08,8.51-12.46,2.85-5.13,2-6.74-2.29-10.76a134,134,0,0,1-11.28-12.07c-3.22-3.87-6-8.13-8.9-12.22L1068,13.84Zm-61.55,208.9c.09-14.18.39-28.36.21-42.53-.14-10.48-.78-20.91-1.45-31.35-.25-3.82-1.24-7.61-1.92-11.57-9.41,3.49-10.69,5.81-8.61,14a60.7,60.7,0,0,1,1.25,6.14c3.11,21.28,3.69,42.57.34,63.9-3.41,17.91-6.82,35.83-10.27,54l10.8,2.43C999.81,263.57,1002.14,245.28,1003.94,226.88Zm116.5-28.07a78.73,78.73,0,0,0,2.62-7.91c3.11-13.9,7.41-27.33,14.79-39.63a15.76,15.76,0,0,0,1.94-3.57c3.8-15.29-2.18-28.76-8.53-41.92-2.36-4.89-7.15-5.48-12.58-3.9s-10.76,2.76-16.14,4.11l-5.52.25c2.5,11.39,4.81,21.94,7.12,32.49,3.77,19.09,6.67,38.28,6.84,57.8.08,8.1.12,16.21.26,24.31a22.23,22.23,0,0,0,.81,3.94h1.39q3.51-13,7-26Zm-5.15,37c6.81-3,13.71-5.8,20.36-9.08a9.2,9.2,0,0,0,4.19-5c4.29-13.28,8.31-26.65,8.49-40.82,0-3,.7-6,1-9a92.27,92.27,0,0,0,.65-11.12c-.16-4.06-1.67-7.6-6.16-9.5-3.53,6.08-7.28,11.71-10.13,17.76-2,4.14-2.61,8.9-4,13.34q-7.92,26-15.91,52l-.92,2ZM950,112.48c7.41,7.44,7.36,17.36,8.76,28.31,2.22-3.3,4.66-5.36,5-7.73,1-6.29,1-12.77,1.48-19.17a61.34,61.34,0,0,0-.62-6.92c-2.52-12.58-5.43-25-7.68-37.6-3-16.71-5.51-33.54-8.32-50.26-.56-3.32-1-6.78-3.71-9.55l-10.12,5.21a10.4,10.4,0,0,0-.38,2.23q2.24,38.7,4.57,77.39a33.28,33.28,0,0,0,1.18,6.86,10.18,10.18,0,0,0,2.29,4.06C944.78,107.83,947.41,110.11,950,112.48ZM899,28.88A91.42,91.42,0,0,0,896.87,39c-.62,6.17-2.19,12.69-.93,18.54,3.14,14.67,7.63,29,11.71,43.93L918.51,99H934.9c-2.42-27.81-2.61-56.47-5.59-85.53-6.77-.67-12.73-1.44-18.7-1.77-4.05-.23-7.18,1.4-8.28,5.82C901.37,21.36,900.12,25.11,899,28.88Zm-28.65,15-14,.87a26.35,26.35,0,0,0-.58,4.47c.61,11.8,1,23.63,2.09,35.39,1,10.62,2.43,21.21,4.24,31.72a26,26,0,0,0,4.59,10.63c5.51,7.45,11.59,14.5,17.51,21.66a35.47,35.47,0,0,0,3.85,3.45c1.63-15.9.61-31.22,7.32-45.22l7.05-5.06a11.24,11.24,0,0,0,0-2.32c-3.5-13.41-6.56-27-10.71-40.16-1.75-5.55-5.75-10.4-8.81-15.53-1.39-2.34-3.68-2.67-6.08-2-2.21.57-4.33,1.41-6.49,2.14Zm179.06,219.39c.64-.18,1.76-.23,1.87-.58,1.36-4.33,2.58-8.69,3.84-13a7.65,7.65,0,0,0,.85-1.86q4-26.86,8-53.79c2-12.1,4.08-24.18,6-36.33,1.22-8-4.24-12.84-12.17-11.44S1046.92,153.26,1045,160c-2.24,7.29-5,14.46-6.61,21.88-3.14,14.31-5.51,28.78-8.45,43.13a148.34,148.34,0,0,0-3,39.55c.12,1.76.59,3.49,1.09,6.29ZM1167.7,120.68c-2.41,6-5,11.93-7.13,18-.7,1.94-.92,4.84.07,6.39,2.8,4.39,3.43,9.22,3.14,14-1.06,17.77-1.12,35.68-6.43,52.95-.36,1.2-.24,2.54-.46,5.08l21.3-12.07c5.51-1.46,7.91-5.43,9.71-10.6,7.73-22.2,12-45.29,17.76-68,1.84-7.19,3.74-14.39,5.08-21.66.5-2.75.43-6.45-1-8.51a20.89,20.89,0,0,0-12.34-8.49,13.38,13.38,0,0,0-11.72,2.46c-10.45,7.62-15.17,18.41-18,30.43Zm-73.36,124.55,12.49-5c0-15.21.58-29.61-.16-43.95-.76-14.82-1.71-29.78-4.52-44.3-4.82-25-11.11-49.66-16.88-74.44-1-4.3-4.79-7.23-9.61-7.51-2.26-.14-4.57.49-6.85.78-8,2.21-8,2.28-6.34,9.6a26.86,26.86,0,0,1,1,7.52c-.64,10.57-1.53,21.14-2.36,31.71-.26,3.37-.6,6.75-.86,9.48l15.62,1.14,4.62,3.67,5.08,6.61a.81.81,0,0,0,.35,1.06c.32,1.09.63,2.19.94,3.29l.42,2.37.5,8.38-.35,4.25c-3.37,14-6.14,28-6.87,42.43-.46,9.25-.75,18.52-1.64,27.73-.6,6.16-2.1,12.25-3.24,18.36-.27,1.48-.7,2.94-1.25,5.38ZM989,225.62c4.27-20.81,3.27-41.68.58-62.54A39.46,39.46,0,0,0,987,153a9.18,9.18,0,0,0-4.57-4.64c-6.33-2.47-12.89-4.14-19.75-2-3.42-.49-4.59,1.23-4.55,4.4.07,4.41.23,8.84-.07,13.23-.41,6.23-.66,12.58-1.94,18.63-3,14.07-6.74,28-9.7,42.06-2.76,13.09-4.89,26.31-7.33,39.74l39,13.79C984.18,260.47,986.54,243,989,225.62Zm-54.41-5.73L938,207c1.4-4,3.13-7.89,4.12-12,3.49-14.38,6.91-28.78,9.9-43.28,1.72-8.38,2.6-17,.45-25.48a74.06,74.06,0,0,0-3.25-8.38l-11.26,3.84-27.5,2.57c-1.14,42.19-9.08,84.69-6.1,128.19l11.76,4.14,4.8,1.74C927.43,245.69,932.31,233.26,934.55,219.89ZM813,210.11c7.41,3.87,14.8,7.8,22.3,11.5.57.29,1.93-1,2.93-1.6,1.33-4.11,3-8.15,3.87-12.35.63-2.89.08-6,.34-9a10.29,10.29,0,0,0-2.68-8.3c-12.32-13.47-18.2-30.55-26-46.52-4.48-9.18-.35-17.65,3.09-25.94.64-1.56,3.15-2.55,5-3.33,5.34-2.24,10.81-4.14,16.15-6.39,1-.42,1.66-1.78,2.48-2.71.18-12.75.4-25.5.54-38.25,0-4.75-1-9.09-4.77-12.33l-10.58,4.19c-4.06,1.72-8,3.71-12.18,5.09-5.42,1.79-7.58,5.54-8,10.95-1.18,16.67-3.08,33.32-3.58,50-.62,20.42-.06,40.88-.09,61.32a39.69,39.69,0,0,0,3.87,16.83c1.54,3.37,3.6,5.9,7.29,6.87Zm-13-7.3c-.79-5.19-1.8-9.93-2.16-14.73s-.11-9.78-.11-14.68c0-9.08.3-18.16-.06-27.24-1-24.5,1.52-48.8,4-73.1.57-5.51.65-5.5-5.68-7.73-1.2,2.34-2.55,4.72-3.64,7.21-4.41,10.13-6.33,20.88-7.77,31.75a320.07,320.07,0,0,0,.18,85.57,7.36,7.36,0,0,0,2.4,4.63C791.17,197.49,795.54,200,800,202.81Zm208.53,33.4c.85-3,2-6.74,3-10.55,4.35-17.85,8.49-35.76,12.94-53.59,3.53-14.15,8.38-27.69,20.11-37.5a4.67,4.67,0,0,0,1.8-2.83,101.2,101.2,0,0,0-1.92-24c-7,6.44-13.14,12.08-19.26,17.75a29.15,29.15,0,0,0-9.18,16.12c-3.86,20.09-8.35,40.08-7.53,60.79C1008.85,213.88,1008.48,225.38,1008.48,236.21Zm183-38.67c7.92-3.25,13.57-6.78,15.19-15.37,1.34-7,4.61-13.61,6.78-20.48q9.82-30.88,19.36-61.84c.81-2.63.48-5.59.75-9.43-5.66,2.53-10,4.55-14.49,6.45-2.16.93-2.9,2.46-3.43,4.73q-8.73,37-17.79,73.85c-1.81,7.18-4.11,14.2-6.4,22.09ZM896.7,113.76c-1,4.89-2,8.38-2.35,12-.7,7.17-.85,14.39-1.58,21.55s0,13.76,5,19.48c2.69,3.08,2.57,6.6.91,10.43a173.49,173.49,0,0,0-6,16.34c-1.55,4.85-3.57,9.78-3.79,14.78-.53,12.49-.17,25-.17,37.85l10.9,4.63c0-3.12-.07-5.2,0-7.27.93-22.28,1.63-44.57,2.92-66.82,1-18,2.83-36.07,4.23-53.42Zm131.89,57.85-25.85,107.11,20-6.54c0-2.2.09-3.81,0-5.41a180.47,180.47,0,0,1,4.42-49.78c3.21-14.49,5.73-29.14,8.52-43.72.11-.57-.28-1.23-.51-2.1ZM835.79,48.51c7.75,5.75,9.78,13.79,9.25,22.86-.27,4.64-.53,9.3-.6,14-.1,6.93,0,13.87,0,20.1l11.66,6.42q-2.64-33-5.22-65.29l-13.2-8.81C837,41.62,836.42,45,835.79,48.51ZM1043.69,72c.32,11.54,2.1,22.17,4.32,32.91s2.6,21.79,3.79,32.71l1.8.26c.84-1.72,2.2-3.37,2.43-5.17,1-8.3,1.88-16.62,2.6-25,1-11.34,2.09-22.71-2.64-33.81Zm-89.25,95.72-1.5-.51c-8.1,31.13-14,62.88-27.53,92.87l10,3.49c3.33-28.27,10.06-54.86,16.84-81.45C953.49,177.46,953.74,172.51,954.44,167.68Zm190,54.25c6.16-2,6.25-2,7.61-5.91,6.6-19.2,7.31-39.18,7.68-59.19a13.37,13.37,0,0,0-.69-3.13l-1.34-.4c-1.12,2-3,4-3.24,6.13-1.2,9.21-2.34,18.46-2.71,27.72a80,80,0,0,1-4,22.54c-1.27,3.89-2.13,7.9-3.3,12.26ZM997.5,137.05c-15.51-7.42-28.09-5.78-32.26,3.34,5.88,1.24,11.87,2.66,17.93,3.69,2.1.36,4.68.39,6.43-.56C992.32,142,994.53,139.56,997.5,137.05Zm217.15-42.8c5.14-1.86,10.54-3.6,15.26-7.25-9.42-7.16-22.66-8.47-30-3.49Zm-166.28,44.6A37.34,37.34,0,0,0,1031.25,167l5.49-.55c3.76-7.26,7.4-13.92,10.63-20.77.92-2,.69-4.55,1-6.85ZM800,60.61c2.09,3.13,3.9,3.75,6.87,2.33,6.88-3.28,14-6.1,21-9.12,1.39-.6,2.7-1.28,4.06-1.93C819.06,47.56,810,55,800,60.61Zm43.93-24.46c2.79,2.13,4.58,4.59,6.18,4.5,8.35-.54,17,.31,25.81-3.73-10.95-5.55-20.9-.54-32-.77ZM1119.2,97.77c-7.64-6.12-16.56-4.65-23.87,3.54,8.51,2,15.72-.94,23.89-3.5ZM939.77,6.87c-13.65-4.2-20.2-4.1-24.87.3,4.19.61,8.28,1.25,12.39,1.83S935.88,11.88,939.77,6.87Zm128.9,58.59c-4.35-4.27-10.22-3.34-18.5,2.92C1058.94,70.86,1058.94,70.86,1068.67,65.46Zm80.06,81.07-.42,1.57,4.49,5.13,4.08-6.7Z" />
                    <path class="cls-6"
                        d="M1193.25,231.18l3.63,1.39c-4.89,7.4-6.14,16-7.82,24.37-8.93,44.45-17.58,89-26.46,133.45q-12.49,62.57-25.25,125.1c-1.8,8.89-4.25,17.67-5.59,26.62-.86,5.86-3.85,8.86-8.84,11.22-14.22,6.74-29.19,10.66-44.68,13-15.86,2.41-31.63,5.48-47.51,7.56-31.57,4.14-63.13,3.86-94.49-2.14-17.34-3.31-34.72-6.56-51.85-10.77-9.87-2.43-19.25-6.77-28.87-10.18-3-1-3.39-3.53-3.87-6.08q-3.85-20.21-7.73-40.41c-3.27-16.9-6.49-33.79-9.89-50.66-7.89-39.23-15.95-78.38-23.8-117.57q-8.64-43.06-16.88-86.23a29.82,29.82,0,0,0-6-13.77c-6.44-8-11.61-16.82-13.51-27.16a18.34,18.34,0,0,0,2,3.4c1.23,1.2,3.89,3.34,3.89,3.34v0l1.4,3v0c.46.92.92,1.84,1.4,2.76v0l1.43,2.71,0,0,1.05,1.57.16.27a1.37,1.37,0,0,0,.58,1l2.22,3.22,1,1.19.34.37L791,233.9l2.57,1.78,1.37,1.1,0,0,1.29,1.4.07.08q1.23,3.49,2.48,7c-2.73,2.41-1,5.3-.54,7.81,3,15.28,6.47,30.49,9.46,45.78,5.73,29.22,11.06,58.52,16.92,87.72,5.94,29.64,12.49,59.18,18.46,88.82,4.41,21.89,8.39,43.86,12.4,65.83.66,3.62,2,5.91,5.59,7.07,9.95,3.2,19.66,7.37,29.8,9.78,17,4,34.19,6.85,51.28,10.36,18.86,3.86,37.89,4.12,57,3.6,29.65-.81,58.68-6.68,87.8-11.63a122.12,122.12,0,0,0,35-11.44,8.92,8.92,0,0,0,5.28-6.77q9.08-45.51,18.35-91c7.63-37.38,15.37-74.75,23-112.13,6.14-30.32,12.07-60.69,18-91a14.7,14.7,0,0,0-.32-3.93c.38-2.1.75-4.13,1.13-6.2l-.09.11,1.59-1.57Z" />
                    <path class="cls-6"
                        d="M780.05,189c1.55.76,3.29,1.39.59,3.08a13.36,13.36,0,0,0-2.45,2.76c-.16.5-.33,1-.5,1.49l-.75,3.08c-.09,1.26-.17,2.52-.26,3.78l-3.61,2.66C772,196.5,773.69,192.31,780.05,189Z" />
                    <path class="cls-5"
                        d="M773.07,205.88l3.61-2.66,3,12.45a38.81,38.81,0,0,1-3.9-3.34,18.34,18.34,0,0,1-2-3.4C773.58,207.91,773.32,206.9,773.07,205.88Z" />
                    <path class="cls-7"
                        d="M779.7,215.67c-1-4.15-2-8.3-3-12.45.09-1.26.17-2.52.26-3.78l.75-3.08c.17-.5.33-1,.49-1.49.87-.05,2-.51,2.54-.1,16.31,13.43,35.19,22.45,54.06,31.51,31.18,15,62.6,29.43,95.54,40.27,14.56,4.79,29,9.89,43.53,14.84,1.1.38,2.21.7,3.31,1.1a41.9,41.9,0,0,0,29.85-.29c20.89-7.77,42.14-14.57,63.25-21.76,12.94.29,24.07-5.36,35.1-11,2.65-1.4,4.52-4.26,6.74-6.46,5.59-2.79,11.07-5.87,16.81-8.38a629,629,0,0,0,71.26-36.69,47.52,47.52,0,0,1,4.67-2.09,22.37,22.37,0,0,1,.05,14.1,61.37,61.37,0,0,1-11.67,21.26l-4.39,5.26-1.59,1.57.09-.1c-9.78,8.22-19.39,16.63-29.34,24.6q-15.81,12.64-32.2,24.54c-8.09,5.83-16.22,11.92-25.15,16.29-26.3,12.89-52.93,24.78-81.71,31.87-17.29,4.26-34,5.53-50.9,1.05-29.25-7.76-57.84-17.5-84-33.12-11.57-6.89-23-13.94-34.23-21.45-8.67-5.83-16.87-12.38-25.1-18.86-6-4.73-11.82-9.78-17.62-14.77-3.68-3.16-7.2-6.52-10.78-9.78l-.07-.08-1.29-1.4,0,0-1.37-1.11L791,233.84l-1.74-2.29-.34-.3-1-1.19-2.22-3.22a.71.71,0,0,0-.4-.91.58.58,0,0,0-.19,0l-.15-.27-1-1.57,0,0-1.47-2.71v0c-.46-.92-.92-1.84-1.4-2.76v0l-1.4-3Z" />
                    <path class="cls-8"
                        d="M840.42,105.5c-.81.92-1.45,2.29-2.48,2.71-5.34,2.25-10.81,4.15-16.14,6.39-1.85.77-4.36,1.77-5,3.32-3.44,8.3-7.58,16.77-3.09,26,7.81,16,13.7,33,26,46.52a10.25,10.25,0,0,1,2.67,8.3c-.25,3,.3,6.13-.33,9-.9,4.19-2.54,8.24-3.87,12.34a58.68,58.68,0,0,1-6.56-4.59c-3.84-3.5-7.44-7.28-11-10.81L813,210.16c-3.69-1-5.76-3.49-7.29-6.87a39.65,39.65,0,0,1-3.87-16.82c0-20.44-.53-40.91.09-61.33.5-16.69,2.4-33.34,3.58-50,.39-5.41,2.55-9.15,8-10.95,4.16-1.39,8.12-3.34,12.17-5,.37,4.11.7,8.21,1.1,12.31.9,9.36,5.59,18.08,4.59,27.77-.27,2.66,1.08,4.37,3.78,5C836.88,104.52,838.65,105,840.42,105.5Z" />
                    <path class="cls-9"
                        d="M916.1,256.61l-11.76-4.13c-3-43.51,5-86,6.1-128.2l27.5-2.55c3,1.65,2.4,4,1.36,6.54a99.79,99.79,0,0,0-7.37,40.47c.16,7.59,1.19,15.15,1.21,22.73A25.55,25.55,0,0,0,938,207l-3.43,12.9c-7.68,3.7-11,10.2-12.52,18.32C920.87,244.53,921.91,251.73,916.1,256.61Z" />
                    <path class="cls-10"
                        d="M989,225.62c-2.46,17.41-4.78,34.85-10.9,52.57l-39-13.79c2.45-13.43,4.57-26.66,7.33-39.75,3-14.08,6.74-28,9.7-42.05,1.28-6.09,1.53-12.4,1.94-18.63.3-4.4.14-8.83.07-13.24,0-3.17,1.13-4.89,4.55-4.4a40.63,40.63,0,0,1,4.61,5.16,10.59,10.59,0,0,1,1.94,5.51,70,70,0,0,1-1.39,10.23,113,113,0,0,0,.83,39.17c.54,2.93,2.92,5.59,4.69,8.2,1,1.51,2.89,2.51,3.69,4.09C979.55,223.67,983.84,225.31,989,225.62Z" />
                    <path class="cls-8"
                        d="M1078.36,65.09a89,89,0,0,1-8.29-4.8c-2.58-1.86-5.3-2.8-8.44-1.55-6.23,2.53-12.43,5.12-18.68,7.6-3,1.19-3.43,3.72-3.24,6.29.55,7.69.81,15.37,2.19,22.88,1,5.49-.07,9.34-4.3,12.84-4.66,3.85-8.86,8.24-13.42,12.22a37.79,37.79,0,0,0-12.85,22.55c-.79,4.53-1.94,9-3.21,14.73-1.22-6.15-2.35-10.89-3.07-15.69-.86-5.71-3.89-9.28-9.44-10.8-.7-.19-1.3-.5-2-.7-5.59-2-6.37-3.23-3.38-8.56a171.2,171.2,0,0,1,13-20.61c12.28-16.07,25.33-31.57,37.54-47.7,8.68-11.47,16.48-23.62,24.67-35.47,3.2,10.48,6.53,21,9.54,31.44C1076.42,54.79,1077.25,60,1078.36,65.09Z" />
                    <path class="cls-11"
                        d="M1080.49,134l-4.62-3.67c-.36-2.51-.55-5.06-1.13-7.51-2.73-11.71-5.63-23.39-5.89-35.48-.09-4.12.58-8.32-3.89-10.1,1.46-2.42,2.65-4.4,3.85-6.37,2.28-.28,4.59-.91,6.85-.78,4.82.29,8.6,3.21,9.61,7.51,5.77,24.79,12.06,49.47,16.88,74.44,2.8,14.52,3.76,29.49,4.52,44.3.74,14.34.16,28.75.16,43.95l-12.49,5c-4-2.51-4-3.32-.7-5.85,1.67-1.28,4-3.24,4-4.89.1-5.26-.7-10.54-1.22-15.81-.85-9.15-1.87-18.29-2.53-27.47-.64-8.73-1-17.46-1.31-26.23-.14-3.49-1.77-5.09-5.17-5l.35-4.26-.5-8.38-.42-2.37-.93-3.28a.82.82,0,0,1-.35-1.07C1085.53,134.31,1085.53,134.31,1080.49,134Z" />
                    <path class="cls-9"
                        d="M1167.67,120.79c2.8-12,7.5-22.81,17.93-30.45a13.39,13.39,0,0,1,11.72-2.46,20.89,20.89,0,0,1,12.34,8.49c1.48,2.06,1.55,5.76,1,8.51-1.34,7.29-3.24,14.48-5.08,21.66-5.79,22.68-10,45.77-17.76,68-1.8,5.17-4.19,9.14-9.71,10.6-.21-1.68-1.05-3.6-.52-5,3.29-8.63,5.74-17.08,3.3-26.64-1.92-7.53-2.21-15.48-3.24-23.24-.9-6.84-1.58-13.73-2.8-20.51C1174.14,125.69,1172.79,121.56,1167.67,120.79Z" />
                    <path class="cls-10"
                        d="M1063.94,194q-4,26.89-8,53.8a7.56,7.56,0,0,1-.85,1.85c-5.1-.55-4.89-5-5.72-8.31-1.33-5.18-2.18-10.48-3.23-15.72l-1.35.21c.38,3.85.7,7.69,1.18,11.54,1.09,8.64,2.26,17.28,3.41,25.91l-21.34,7.69a61.74,61.74,0,0,1-1.09-6.29,147.55,147.55,0,0,1,3-39.55c2.93-14.35,5.31-28.82,8.44-43.13,1.63-7.42,4.38-14.59,6.61-21.88,7.39-2.09,9.68-.75,11.54,7,1.81,7.58,3.41,15.21,5.26,22.78C1062.12,191.34,1063.2,192.61,1063.94,194Z" />
                    <path class="cls-9"
                        d="M895.41,106.83c-6.71,14-5.69,29.34-7.32,45.22a39.92,39.92,0,0,1-3.85-3.45c-5.92-7.16-12-14.2-17.51-21.66a26,26,0,0,1-4.59-10.63c-1.81-10.48-3.28-21.1-4.24-31.72-1.07-11.76-1.45-23.59-2.09-35.39a26.35,26.35,0,0,1,.58-4.47l14-.87c.24.88.22,2,.78,2.6,5.29,5.39,7.3,12.34,8.53,19.34,2.14,12.14,6.52,23.51,10.86,34.94C891.45,103.1,891.89,106.33,895.41,106.83Z" />
                    <path class="cls-9"
                        d="M899,28.88c1.11-3.77,2.36-7.52,3.3-11.33,1.1-4.45,4.23-6.05,8.28-5.82,6,.33,11.92,1.1,18.69,1.77,3,29.06,3.2,57.72,5.59,85.53H918.51c-4.32-.7-4-4.44-4.75-7.44-1.19-4.89-1.65-10.09-3.55-14.67a84.64,84.64,0,0,1-6.29-33c0-3.24-.06-6.47,0-9.71C904,30.81,902.5,29,899,28.88Z" />
                    <path class="cls-8"
                        d="M950,112.48c-2.54-2.37-5.17-4.65-7.55-7.17a10.18,10.18,0,0,1-2.29-4.06,33.28,33.28,0,0,1-1.18-6.86q-2.35-38.7-4.57-77.39a9.82,9.82,0,0,1,.38-2.23l10.12-5.21c2.67,2.8,3.15,6.23,3.71,9.55,2.79,16.76,5.31,33.53,8.32,50.26,2.27,12.57,5.18,25.06,7.68,37.6a61.34,61.34,0,0,1,.62,6.92c-1.85-.74-4-1.09-5.45-2.3-2.36-2-4.26-2.29-6.66-.25C952.31,112,951,112.12,950,112.48Z" />
                    <path class="cls-12"
                        d="M800,202.81c-4.41-2.79-8.78-5.32-12.83-8.28a7.33,7.33,0,0,1-2.4-4.63,320.07,320.07,0,0,1-.18-85.57c1.44-10.87,3.36-21.62,7.77-31.75,1.09-2.49,2.44-4.89,3.64-7.21,6.33,2.23,6.25,2.22,5.68,7.73-2.49,24.3-5,48.6-4,73.1.36,9.08,0,18.16.06,27.25,0,4.89-.25,9.78.11,14.67S799.16,197.62,800,202.81Z" />
                    <path class="cls-9"
                        d="M889.87,187.88c-4.58,17.24-9.17,34.47-14,52.63l-12.62-6.22c-.35-10.59-1.16-21.19-.9-31.77s1.67-21.1,2.36-31.67c.13-1.93-.15-4.45-1.3-5.8-2.85-3.38-4.7-8.19-10.3-8.39-.83,0-1.59-1.52-2.38-2.34,3.09-2.09,5.15-4.7,4.19-8.66-.9-3.68-3.31-5.68-7.06-6.77-2.26-.66-4.37-2.44-6.14-4.13-5.85-5.59-11.18-11.81-18.47-15.64,6.43-2.8,12.46-6.68,19.8-6.79,5,.53,4.71,5.25,6,8.28,7.86,18.2,15.25,36.62,23.06,54.86,1.39,3.3,3.37,7,6.18,8.9C881.51,186.49,885.93,186.78,889.87,187.88Z" />
                    <path class="cls-12"
                        d="M847.05,200.68c.56-6.12-1.83-10.92-5.94-15.42-11.77-12.92-16.86-29.59-24.34-44.9-2.61-5.32.52-10.33,2-15.37,2.88-.08,3.77,2.21,5,4.19,6,9.38,12.81,18.12,21.2,25.49,4,3.49,8.21,6.68,12.37,10,2.8,2.22,5.35,4.49,4.63,8.61-2.44,13.91-2.94,28-2.72,42,.07,3.94,0,7.88,0,11.82,0,2.41-.7,4-3.33,4.36l-5-2.28c2.68-1,2.54-2.8,1.35-4.89-3.22-5.7-4-12-4.26-18.36A38.65,38.65,0,0,0,847.05,200.68Z" />
                    <path class="cls-9"
                        d="M989,225.62c-5.12-.31-9.38-2-11.87-6.93-.81-1.58-2.69-2.58-3.7-4.09-1.77-2.62-4.15-5.27-4.69-8.2a113.25,113.25,0,0,1-.83-39.17,74.39,74.39,0,0,0,1.4-10.23,11,11,0,0,0-1.94-5.51,41.42,41.42,0,0,0-4.61-5.16c6.86-2.14,13.42-.47,19.75,2A9.2,9.2,0,0,1,987,153a39.15,39.15,0,0,1,2.53,10.11C992.23,183.94,993.23,204.81,989,225.62Z" />
                    <path class="cls-12"
                        d="M1008.48,236.21c0-10.83.37-22.35-.08-33.8-.82-20.71,3.67-40.7,7.53-60.79a29.15,29.15,0,0,1,9.18-16.12c6.12-5.67,12.28-11.31,19.26-17.75a101.2,101.2,0,0,1,1.92,24,4.56,4.56,0,0,1-1.8,2.83c-11.74,9.78-16.58,23.35-20.11,37.5-4.45,17.83-8.59,35.74-12.94,53.59C1010.52,229.47,1009.33,233.21,1008.48,236.21Z" />
                    <path class="cls-10"
                        d="M1167.67,120.79c5.12.77,6.47,4.89,7.21,9,1.24,6.78,1.92,13.66,2.8,20.5,1,7.77,1.32,15.71,3.24,23.24,2.44,9.57,0,18-3.3,26.65-.53,1.4.31,3.32.52,5l-21.3,12.08c.22-2.55.1-3.89.47-5.08,5.3-17.27,5.36-35.19,6.42-53,.29-4.75-.31-9.59-3.13-14-1-1.54-.75-4.45-.08-6.38C1162.66,132.74,1165.26,126.78,1167.67,120.79Z" />
                    <path class="cls-13"
                        d="M1113.8,234.4q8-26,15.92-52c1.35-4.44,2-9.2,4-13.34,2.85-6.06,6.6-11.68,10.13-17.76,4.48,1.9,6,5.44,6.15,9.5a92.25,92.25,0,0,1-.64,11.12c-.25,3-1,6-1,9-.17,14.17-4.19,27.54-8.48,40.82a9.21,9.21,0,0,1-4.2,4.95c-6.65,3.3-13.54,6.11-20.35,9.08Z" />
                    <path class="cls-14"
                        d="M1191.5,197.46c2.29-7.89,4.59-14.91,6.36-22.06q9.09-36.89,17.8-73.86c.53-2.26,1.26-3.8,3.43-4.72,4.44-1.9,8.83-3.93,14.48-6.46-.27,3.82.06,6.8-.75,9.43q-9.46,31-19.35,61.85c-2.17,6.86-5.45,13.47-6.78,20.47C1205.07,190.68,1199.42,194.22,1191.5,197.46Z" />
                    <path class="cls-12"
                        d="M896.64,113.76l10.11,9.58c-1.39,17.35-3.17,35.37-4.22,53.42-1.3,22.25-2,44.54-2.92,66.82-.09,2.09,0,4.15,0,7.27l-10.88-4.63c0-12.82-.37-25.36.17-37.85.22-5,2.24-9.93,3.79-14.78a173.49,173.49,0,0,1,6-16.34c1.66-3.83,1.78-7.35-.91-10.43-5-5.72-5.76-12.29-5-19.48s.87-14.38,1.57-21.55C894.65,122.18,895.67,118.63,896.64,113.76Z" />
                    <path class="cls-11"
                        d="M1102.52,106.19c5.38-1.35,10.81-2.55,16.14-4.1s10.24-1,12.58,3.89c6.35,13.16,12.33,26.63,8.53,41.92a15.94,15.94,0,0,1-1.94,3.57c-3.11-5.89-3.11-5.89-9-4.08a59.33,59.33,0,0,0,1,5.94c.64,2.42.1,4.19-2.36,4.93-2.24.65-4.2,0-5.22-2.25a34.69,34.69,0,0,1-1.35-3.95c-4.32-13.43-8.66-26.84-12.9-40.3C1107.06,108.88,1105.71,106.7,1102.52,106.19Z" />
                    <path class="cls-11"
                        d="M938,207a25.55,25.55,0,0,1-4.84-15.52c0-7.58-1-15.14-1.21-22.73a99.79,99.79,0,0,1,7.37-40.47c1-2.56,1.66-4.89-1.36-6.54,3.45-1.19,6.89-2.37,11.26-3.85,1.21,3,2.56,5.63,3.25,8.38,2.15,8.5,1.27,17.1-.45,25.48-3,14.5-6.44,28.9-9.9,43.28C941.13,199.12,939.37,203,938,207Z" />
                    <path class="cls-11"
                        d="M889.87,187.88c-3.91-1.1-8.38-1.4-11.57-3.53-2.8-1.88-4.77-5.59-6.19-8.91-7.8-18.23-15.19-36.65-23.05-54.85-1.31-3-1-7.75-6-8.28,3.63-2.8,5.89-.55,8.09,2.16C858,123,865,131.35,871.77,139.86c7,8.7,13.7,17.59,20.76,26.19,3,3.71,3.25,7.44,1.57,11.58C892.72,181.06,891.29,184.44,889.87,187.88Z" />
                    <path class="cls-13"
                        d="M1087.43,159.91c3.4,0,5,1.58,5.17,5.05.34,8.75.69,17.5,1.3,26.23.67,9.18,1.69,18.32,2.54,27.47.49,5.27,1.32,10.55,1.21,15.81,0,1.69-2.33,3.64-4,4.89-3.31,2.53-3.32,3.34.7,5.85l-19.91,8.6c.57-2.45,1-3.9,1.25-5.38,1.13-6.12,2.64-12.2,3.24-18.37.89-9.21,1.18-18.48,1.64-27.73C1081.29,187.94,1084.06,173.87,1087.43,159.91Z" />
                    <path class="cls-15"
                        d="M1028.54,171.61l6.6-.47c.23.9.61,1.56.5,2.1-2.79,14.58-5.3,29.23-8.52,43.73a180,180,0,0,0-4.41,49.77c.1,1.6,0,3.21,0,5.41l-20,6.54Z" />
                    <path class="cls-8"
                        d="M1081.64,145.9c2.41,6.08,2,12.32.57,18.46-4.34,17.91-6,36.12-6.72,54.49-.36,10-.7,20-4.09,29.54-3.15,8.92-3,9-13.23,11.25,2.25-14.25,4.48-28.35,6.71-42.45.74-1.4,2-2.75,2.14-4.23,1.15-9.34,2.06-18.7,3-28.06.11-.87.21-1.75.31-2.63,2.58-6.86,4.5-13.83,3.69-21.28q-.42-6.28-.85-12.58l-1.53-13.49a3.48,3.48,0,0,0,1-.12c2.68,2.51,6.83,3.63,7.55,8C1080.71,143.82,1081.17,144.86,1081.64,145.9Z" />
                    <path class="cls-8"
                        d="M1102.52,106.19c3.19.51,4.54,2.69,5.45,5.59,4.24,13.46,8.58,26.87,12.9,40.3a34.69,34.69,0,0,0,1.35,3.95c1,2.28,3,2.9,5.22,2.25,2.46-.7,3-2.51,2.37-4.93a59.36,59.36,0,0,1-1-5.94c5.94-1.81,5.94-1.81,9,4.08-7.38,12.3-11.68,25.74-14.79,39.63a77.9,77.9,0,0,1-2.62,7.91c-.34-1.95-1.39-4.11-.9-5.8a22,22,0,0,0-.1-12.3c-2-7.85-3.42-15.84-5.24-23.76-1-4.43-2.43-8.78-3.55-13.2-.88-3.45-3-5.07-6.53-5-2.31-10.55-4.62-21.1-7.12-32.48Z" />
                    <path class="cls-11"
                        d="M895.41,106.83c-3.49-.5-4-3.73-4.89-6.12-4.34-11.4-8.72-22.76-10.85-34.9-1.23-7-3.25-14-8.54-19.34-.56-.58-.53-1.72-.78-2.6,2.16-.7,4.29-1.57,6.48-2.15,2.4-.63,4.68-.31,6.08,2,3.05,5.13,7.05,10,8.8,15.53,4.19,13.2,7.23,26.75,10.71,40.16a9.92,9.92,0,0,1,0,2.31Z" />
                    <path class="cls-14"
                        d="M993.76,225.5c3.35-21.33,2.8-42.62-.34-63.9a60.7,60.7,0,0,0-1.25-6.14c-2.1-8.22-.8-10.48,8.61-14,.7,4,1.67,7.75,1.92,11.57.7,10.44,1.31,20.9,1.45,31.35.18,14.17-.12,28.35-.21,42.53Z" />
                    <path class="cls-16"
                        d="M835.79,48.51c.63-3.56,1.21-6.89,1.89-10.74l13.17,8.77q2.6,32.34,5.22,65.3l-11.66-6.43c0-6.22-.07-13.16,0-20.1.07-4.64.33-9.3.6-14C845.58,62.3,843.54,54.26,835.79,48.51Z" />
                    <path class="cls-12"
                        d="M1043.69,72,1056,73.9c4.75,11.1,3.62,22.47,2.64,33.81-.7,8.34-1.55,16.66-2.6,25-.23,1.8-1.6,3.45-2.43,5.17l-1.8-.26c-1.19-10.92-1.56-22-3.79-32.71A184.35,184.35,0,0,1,1043.69,72Z" />
                    <path class="cls-15"
                        d="M993.76,225.5l10.18,1.39c-1.8,18.4-4.11,36.7-9.65,55.07l-10.8-2.42C986.94,261.33,990.35,243.41,993.76,225.5Z" />
                    <path class="cls-13"
                        d="M1104.12,138.71c3.5,0,5.65,1.58,6.53,5,1.12,4.41,2.52,8.76,3.55,13.2,1.82,7.9,3.25,15.88,5.24,23.76,1.06,4.19,1.4,8.08.1,12.29-.51,1.69.56,3.86.9,5.81q-3.48,13-7,26h-1.4a21.35,21.35,0,0,1-.8-3.94c-.15-8.1-.19-16.21-.26-24.31C1110.79,177,1107.89,157.8,1104.12,138.71Z" />
                    <path class="cls-11"
                        d="M1078.36,65.43c-1.11-5.1-1.94-10.29-3.38-15.31-3-10.54-6.34-21-9.54-31.44h.06l5.93.51c3,4.09,5.69,8.38,8.9,12.23a133.44,133.44,0,0,0,11.29,12c4.29,4,5.13,5.63,2.29,10.77-2.43,4.37-5.65,8.32-8.5,12.46l-7-1.23Z" />
                    <path class="cls-13"
                        d="M899,28.57c3.49.05,4.94,1.92,4.89,5.3s0,6.47,0,9.71a84.63,84.63,0,0,0,6.28,33c1.9,4.6,2.37,9.78,3.55,14.67.7,3,.44,6.71,4.75,7.43l-10.85,2.47c-4.08-14.94-8.58-29.29-11.72-43.93-1.26-5.86.31-12.37.93-18.54A100.13,100.13,0,0,1,899,28.57Z" />
                    <path class="cls-11"
                        d="M840.42,105.5c-1.77-.45-3.54-1-5.33-1.33-2.69-.58-4.05-2.29-3.78-5,1-9.69-3.69-18.41-4.59-27.77-.39-4.1-.7-8.2-1.1-12.31L836.2,55C840,58.16,841,62.53,841,67.27,840.82,80,840.6,92.71,840.42,105.5Z" />
                    <path class="cls-8"
                        d="M1063.94,194c-.74-1.35-1.82-2.62-2.18-4.07-1.85-7.56-3.45-15.19-5.26-22.78-1.86-7.78-4.15-9.13-11.54-7,1.93-6.76,4.89-12.44,12.77-13.84s13.38,3.49,12.16,11.43C1068,169.77,1065.93,181.87,1063.94,194Z" />
                    <path class="cls-16"
                        d="M855.89,231.42c2.61-.32,3.38-1.95,3.33-4.37-.08-3.93,0-7.87,0-11.81-.23-14.08.28-28.12,2.71-42,.7-4.12-1.8-6.39-4.62-8.61-4.19-3.27-8.38-6.46-12.37-9.95a117,117,0,0,1-21.2-25.49c-1.24-2-2.1-4.23-5-4.19,0-2.25.61-4.07,3.21-4.45,2,2.45,4,4.89,5.88,7.36,4.15,5.44,7.5,11.82,12.57,16.07,3.81,3.2,7.69,6,10.33,10.28.79.82,1.55,2.31,2.38,2.34,5.59.22,7.45,5,10.3,8.39,1.15,1.35,1.4,3.87,1.3,5.8-.7,10.57-2.09,21.1-2.36,31.67s.55,21.18.89,31.77Z" />
                    <path class="cls-8"
                        d="M1068.81,70.84c-1.2,2-2.39,4-3.85,6.37,4.47,1.78,3.8,6,3.89,10.1.26,12.09,3.16,23.75,5.89,35.48.58,2.45.77,5,1.13,7.51l-15.62-1.14c.26-2.74.6-6.11.86-9.49.83-10.56,1.72-21.13,2.36-31.71a26.91,26.91,0,0,0-1-7.52C1060.79,73.13,1060.79,73.05,1068.81,70.84Z" />
                    <path class="cls-15"
                        d="M954.44,167.68c-.7,4.81-1,9.73-2.15,14.42-6.78,26.59-13.51,53.18-16.84,81.45l-10-3.5c13.5-30,19.43-61.73,27.53-92.86Z" />
                    <path class="cls-8"
                        d="M1105,55c4.11,5.21,4.25,10.91.87,16.24-3.79,6-8.38,11.47-12.61,17.23-5-2.45-2.9-7.19-4.44-10.48-2.61-5.59-.91-10.74,4.12-15,2.37-2,3.65-5.29,5.44-8Z" />
                    <path class="cls-12"
                        d="M942.27,115.44a62.8,62.8,0,0,1-28.68,3.6c-6.59-.7-11.11-3.88-14.42-10.34,5.91-3.41,12.15-4.43,18.56-4.89l2.64,2.1C926.77,111.16,936.06,109.75,942.27,115.44Z" />
                    <path class="cls-17"
                        d="M1144.39,222c1.17-4.36,2-8.38,3.32-12.24a80,80,0,0,0,4-22.53c.37-9.27,1.52-18.52,2.71-27.73.28-2.14,2.1-4.09,3.25-6.13l1.33.4a13.91,13.91,0,0,1,.7,3.13c-.37,20-1.08,40-7.69,59.19C1150.64,220,1150.55,220,1144.39,222Z" />
                    <path class="cls-7"
                        d="M850.74,154.3c-2.63-4.28-6.52-7.08-10.33-10.28-5.11-4.28-8.46-10.66-12.58-16.07-1.9-2.5-3.91-4.89-5.88-7.36l1.32-1.46c7.29,3.83,12.59,10,18.44,15.6,1.77,1.69,3.88,3.5,6.14,4.14,3.74,1.09,6.15,3.09,7.06,6.77C855.89,149.59,853.8,152.23,850.74,154.3Z" />
                    <path class="cls-17"
                        d="M997.5,137.05c-3,2.51-5.18,5-7.9,6.47-1.75.95-4.35.92-6.43.56-6.06-1-12-2.45-17.93-3.69C969.41,131.27,982,129.63,997.5,137.05Z" />
                    <path class="cls-17"
                        d="M1214.65,94.25,1200,83.52c7.29-5,20.53-3.68,29.94,3.5C1225.19,90.65,1219.79,92.39,1214.65,94.25Z" />
                    <path class="cls-16"
                        d="M916.1,256.61c5.81-4.89,4.76-12.07,5.93-18.4,1.49-8.12,4.81-14.62,12.52-18.32-2.24,13.37-7.12,25.8-13.65,38.46Z" />
                    <path class="cls-13"
                        d="M950,112.48c1.06-.36,2.36-.46,3.15-1.14,2.41-2,4.31-1.71,6.66.25,1.45,1.21,3.61,1.56,5.45,2.3-.43,6.4-.51,12.85-1.48,19.17-.36,2.37-2.8,4.43-5,7.73C957.31,129.84,957.36,119.92,950,112.48Z" />
                    <path class="cls-17"
                        d="M1105,55h-6.62c2.64-6.92.22-11.59-5.45-16.22-5.42-4.43-9.55-10.44-14.57-16.12,3.36-2.23,5.69-1.4,7.89-.15a27.32,27.32,0,0,1,13.08,15.62Q1102.19,46.54,1105,55Z" />
                    <path class="cls-11"
                        d="M1048.36,138.88c-.3,2.3-.07,4.85-1,6.84-3.22,6.86-6.87,13.52-10.63,20.78l-5.48.55A37.33,37.33,0,0,1,1048.36,138.88Z" />
                    <path class="cls-15"
                        d="M800,60.61c10-5.64,19-13,31.91-8.72-1.35.65-2.68,1.33-4.06,1.93-7,3-14.1,5.84-21,9.12C803.9,64.36,802.09,63.74,800,60.61Z" />
                    <path class="cls-16"
                        d="M1112.13,242.94c-2.22,2.2-4.09,5.1-6.74,6.46-11,5.68-22.16,11.33-35.1,11Z" />
                    <path class="cls-15"
                        d="M843.94,36.29c11.08.23,21-4.78,32,.77-8.85,4-17.47,3.19-25.81,3.73C848.52,40.88,846.76,38.42,843.94,36.29Z" />
                    <path class="cls-16"
                        d="M1119.22,97.81c-8.17,2.59-15.37,5.54-23.86,3.54C1102.66,93.13,1111.6,91.66,1119.22,97.81Z" />
                    <path class="cls-12"
                        d="M813,210.13l7.69-5.52c3.57,3.54,7.17,7.31,11,10.81a58.68,58.68,0,0,0,6.56,4.59c-1,.58-2.36,1.9-2.94,1.62C827.78,217.92,820.39,214,813,210.13Z" />
                    <path class="cls-17"
                        d="M942.27,115.44c-6.21-5.69-15.5-4.28-21.9-9.51l-2.64-2.1c11.36-2.69,19.7.58,27.16,10.87Z" />
                    <path class="cls-8"
                        d="M1049.42,263.22c-1.15-8.63-2.32-17.27-3.41-25.91-.48-3.83-.8-7.68-1.18-11.54l1.35-.21c1,5.25,1.9,10.54,3.22,15.72.86,3.35.63,7.75,5.73,8.31-1.26,4.36-2.48,8.72-3.84,13C1051.15,263,1050,263,1049.42,263.22Z" />
                    <path class="cls-17"
                        d="M847.05,200.68a38.94,38.94,0,0,1,.91,5.25c.27,6.4,1,12.66,4.26,18.36,1.19,2.1,1.33,3.87-1.35,4.9l-10.48-4.66C846.35,217.28,846.11,208.85,847.05,200.68Z" />
                    <path class="cls-16"
                        d="M939.77,6.87c-3.89,5-8.31,2.71-12.48,2.13s-8.21-1.22-12.39-1.83C919.57,2.79,926.12,2.69,939.77,6.87Z" />
                    <path class="cls-16"
                        d="M1068.67,65.46c-9.73,5.4-9.73,5.4-18.5,2.92C1058.45,62.12,1064.32,61.19,1068.67,65.46Z" />
                    <path class="cls-16"
                        d="M1071.46,134.71,1073,148.2a18.25,18.25,0,0,0-15.63-6.61c0-.84.08-1.67.11-2.5l.25-.3,1.08-1.19.18-.15,3.63-1.4,3.21,5.26,1.73-.54v-6.11Z" />
                    <path class="cls-16"
                        d="M1070.06,184.9c-1,9.35-1.89,18.71-3,28.06-.17,1.47-1.39,2.79-2.14,4.22Q1067.47,201,1070.06,184.9Z" />
                    <path class="cls-16" d="M1148.73,146.53h8.15l-4.06,6.7-4.49-5.13Z" />
                    <path class="cls-16" d="M1074.06,161c.81,7.45-1.11,14.42-3.69,21.28Z" />
                    <path class="cls-15"
                        d="M883.84,234c.36,3.15.7,6.29,1.16,10.16l-5.27-1.83,3-8.51A2.86,2.86,0,0,0,883.84,234Z" />
                    <path class="cls-15"
                        d="M1062.83,136.24l-3.64,1.39c3.57-5.46,8.39-5,13.51-2.79a3.48,3.48,0,0,1-1,.12l-3.92-.07Z" />
                    <path class="cls-13" d="M1080.49,134c5,.34,5,.34,5.08,6.6Z" />
                    <path class="cls-8" d="M1078.41,65.09l7,1.22C1081.59,68.25,1080.26,68,1078.41,65.09Z" />
                    <path class="cls-8" d="M1071.43,18.8l-5.94-.51,2.52-4.16Z" />
                    <path class="cls-13" d="M1087.28,147.29l.5,8.38Z" />
                    <path class="cls-16" d="M883.8,234a2.86,2.86,0,0,1-1.12-.18c.3-1.55.61-3.1,1.12-5.72Z" />
                    <path class="cls-15" d="M1081.64,145.9c-.47-1-.93-2.09-1.4-3.14Z" />
                    <path class="cls-13"
                        d="M1085.92,141.64c.32,1.09.63,2.18.94,3.28C1086.55,143.82,1086.24,142.73,1085.92,141.64Z" />
                    <path class="cls-15" d="M1057.7,139.27c0,.83-.07,1.66-.11,2.5C1056,141,1056,141,1057.7,139.27Z" />
                    <path class="cls-13" d="M1115.29,235.79l-2.4.64c.31-.7.62-1.35.92-2Z" />
                    <path class="cls-15" d="M1059,137.78l-1.09,1.19Z" />
                    <path class="cls-18"
                        d="M1186.24,244.1c.12,1.31.56,2.68.31,3.93-6,30.35-11.88,60.72-18,91-7.57,37.4-15.37,74.76-23,112.13q-9.27,45.46-18.36,91a9,9,0,0,1-5.28,6.76,122,122,0,0,1-35,11.44c-29.13,5-58.14,10.85-87.81,11.66-19.08.51-38.14.25-57-3.61-17.09-3.49-34.32-6.34-51.28-10.36-10.14-2.4-19.85-6.57-29.8-9.78-3.59-1.16-5-3.45-5.59-7.07-4-22-8-43.94-12.4-65.83-6-29.63-12.52-59.17-18.46-88.81-5.86-29.2-11.18-58.5-16.92-87.73-3-15.28-6.42-30.49-9.46-45.77-.5-2.52-2.19-5.4.54-7.81,3.54,3.68,6.72,7.8,10.68,10.95,9.44,7.53,19.65,14.18,28.83,22,12.12,10.36,25.45,18.75,39.26,26.43,2.23,1.25,4.3,2.8,6.57,4,7.42,3.82,14.72,8,22.42,11.18,12.23,5.11,24.88,9.23,37.18,14.2,14.67,5.89,30,8.27,45.47,10.29a36.5,36.5,0,0,0,12.46-.69c17.73-4,35.33-8.21,52.47-14.3,28.49-10.13,55-23.75,79-42.27,9-7,18.33-13.57,27.2-20.73S1177.61,251.51,1186.24,244.1Z" />
                    <path class="cls-19"
                        d="M1186.24,244.1c-8.63,7.41-17.08,15-25.92,22.16S1142.15,280,1133.12,287c-24,18.54-50.51,32.13-79,42.27-17.14,6.09-34.74,10.28-52.47,14.26a36.5,36.5,0,0,1-12.46.7c-15.45-2-30.83-4.4-45.47-10.3-12.3-4.95-24.93-9.08-37.18-14.13-7.68-3.19-15-7.37-22.42-11.18-2.27-1.18-4.33-2.72-6.56-4-13.82-7.71-27.15-16.1-39.27-26.46-9.18-7.8-19.39-14.45-28.83-22-4-3.15-7.14-7.27-10.68-11q-1.24-3.49-2.48-7c3.58,3.27,7.1,6.63,10.78,9.78,5.8,5,11.59,10,17.62,14.77,8.23,6.46,16.43,13,25.1,18.86C861,289.16,872.47,296.21,884,303.1c26.19,15.62,54.78,25.36,84,33.12,16.89,4.48,33.61,3.21,50.9-1.05,28.78-7.09,55.41-19,81.75-31.87,8.9-4.37,17-10.48,25.15-16.29q16.41-11.85,32.19-24.54c10-8,19.56-16.38,29.35-24.6C1187,240,1186.61,242,1186.24,244.1Z" />
                    <path class="cls-5" d="M779.74,215.72l1.32,2.84Z" />
                    <path class="cls-5" d="M781,218.59c.46.92.91,1.84,1.39,2.76C782,220.43,781.5,219.51,781,218.59Z" />
                    <path class="cls-5" d="M789.23,231.62,791,233.9Z" />
                    <path class="cls-5" d="M782.43,221.39l1.5,2.71Z" />
                    <path class="cls-5" d="M783.93,224.05l1.05,1.57Z" />
                    <path class="cls-5"
                        d="M785.11,225.89a.69.69,0,0,1,.63.76.65.65,0,0,1,0,.19A1.42,1.42,0,0,1,785.11,225.89Z" />
                    <path class="cls-5" d="M787.92,230.06l1,1.19Z" />
                    <path class="cls-19" d="M793.54,235.68l1.37,1.1Z" />
                    <path class="cls-19" d="M794.94,236.84l1.29,1.4Z" />
                    <path class="cls-19" d="M1187.27,238l1.59-1.57Z" />
                    <path class="cls-5" d="M777.69,196.36l-.75,3.08Z" />
                    <path class="cls-8" d="M1062.62,136.24l4.93-1.4v6.1l-1.73.54Z" />
                </g>
            </g><text class="cls-20" transform="translate(1121.83 370.41)">
                <tspan class="cls-21">FRIE</tspan>
                <tspan x="669.25" y="0">D</tspan>
            </text>
        </g>
    </g>
</svg>