<svg xmlns="http://www.w3.org/2000/svg" viewBox="400 400 710 690"><defs><style>.cls-1{fill:#fff;}.cls-2{fill:#8781bb;}.cls-3{fill:#020202;}.cls-4{fill:#83ca9d;}.cls-5{fill:#030202;}.cls-6{fill:#f59679;}.cls-7{fill:#030303;}.cls-8{fill:#6ccdf3;}.cls-9{fill:#010101;}.cls-10{fill:#f29578;}.cls-11{fill:#030403;}.cls-12{fill:#080a09;}</style></defs><g id="Layer_2" data-name="Layer 2"><g id="Layer_1-2" data-name="Layer 1"><path class="cls-1" d="M0,0H1500.12V1500.12H0ZM506.64,590.3c-.73.8-.58,1.78-.58,2.73q0,30.13,0,60.29a19,19,0,0,0,.28,2.36c0,1.43-.07,2.87-.08,4.3V803.51c0,1.43,0,2.87.06,4.3-.08,1.27-.23,2.53-.23,3.8q0,29.35,0,58.72c0,1.11.14,2.22.22,3.32,0,5.11,0,10.22-.08,15.32a10.9,10.9,0,0,0,1.6,5.89c6.81,11.72,13.56,23.47,20.35,35.21a8.24,8.24,0,0,0,1.1,1.53,1,1,0,0,0,.85.26,23.21,23.21,0,0,0,2.54-1.28q29.42-17,58.82-34,19.49-11.24,39-22.43c1.95-.72,3.48-2.15,5.31-3.1,3.12-1.62,6.12-3.46,9.16-5.22l22.41-13,21.56-12.49q6.86-4,13.7-7.92c.69-.39,1.41-.74,2.12-1.1a1.49,1.49,0,0,1,1.74.37c.36.52.73,1,1,1.59q11.25,19.51,22.52,39a5.32,5.32,0,0,0,1,1,9.77,9.77,0,0,0,1.65,3.42q16.59,28.77,33.21,57.51c.56,1,1.2,1.87,1.81,2.8a51.71,51.71,0,0,0,3.5,6.78c4.13,7.19,8.35,14.33,12.51,21.5,2.88,5,5.69,10,8.55,15q5,8.7,10.08,17.39a16.19,16.19,0,0,0,2.64,3.8,4.39,4.39,0,0,0,2.77-1c5.39-3.1,10.75-6.26,16.14-9.36,7.33-4.22,14.69-8.38,22-12.61,7-4.07,14-8.21,21.09-12.28,7.32-4.23,14.68-8.39,22-12.61q12.45-7.15,24.85-14.37a14.88,14.88,0,0,0,3.6-2.24l72.23-41.7q23.24-13.42,46.48-26.85c1-.56,1.9-1.17,2.8-1.82a.94.94,0,0,0,.27-.84,8.74,8.74,0,0,0-.82-1.72L1018,828.89c-.24-.41-.51-.81-.78-1.21a1.33,1.33,0,0,0-1.7-.33c-1,.54-1.95,1.1-2.91,1.66l-176,101.61c-1.52.87-3,1.74-4.6,2.57a7.07,7.07,0,0,1-1.47.38c-.83-1.4-1.66-2.76-2.46-4.14q-8.52-14.73-17-29.47-6.95-12-13.9-24.08c-.63-1.09-1.09-2.35-2.35-3a4.8,4.8,0,0,0-.21-1.38c-.55-1.14-1.16-2.26-1.8-3.36q-7.5-13-15-26.06c-5.5-9.5-11-19-16.53-28.48-1.11-1.9-1.92-4-3.6-5.54-.23-1.47-1.22-2.58-1.82-3.87a1.23,1.23,0,0,1,.31-1.66c1.09-.67,2.17-1.35,3.27-2L800,777.17q9.54-5.5,19-11c.95-.55,2-.95,2.48-2.1a2.05,2.05,0,0,0,1.82-.25l19.49-11.24c7-4.08,14.07-8.18,21.12-12.25s14.4-8.25,21.59-12.39q11.82-6.82,23.62-13.67c1.66-1,3.26-2,4.87-3a1.63,1.63,0,0,0,.41-1.75c-1.88-3.14-3.33-6.54-5.6-9.45-.17-.22-.53-.29-.81-.42a3.84,3.84,0,0,0-.52-2.28q-7.18-12.4-14.34-24.81a9.74,9.74,0,0,0-1.28-1.44c-1.37.76-2.64,1.43-3.87,2.14l-36,20.77c-2.21,1.27-4.41,2.56-6.62,3.82a3.32,3.32,0,0,0-1.54,1.74,4.53,4.53,0,0,0-1.39.09,14.69,14.69,0,0,0-2.13,1.08L820,712.47q-8.5,4.92-17,9.84c-5,2.88-10,5.72-15,8.59q-8.31,4.8-16.59,9.62l-13.29,7.67L742,757.55c-2.49,1.44-5,2.88-7.5,4.28a2.43,2.43,0,0,1-3.68-.94c-1.4-2.33-2.75-4.69-4.1-7q-5.16-8.93-10.3-17.86-6.21-10.8-12.42-21.61-3.94-6.86-7.93-13.69a2.1,2.1,0,0,0-1.43-1.16,3.73,3.73,0,0,0-.81-2.65q-11.4-19.75-22.83-39.49a21.75,21.75,0,0,0-1.7-2.25c-.22-1.64-1.21-2.93-2-4.32s-1.78-3-2.62-4.57c-.72-1.3-.51-2.1.69-2.8,2.76-1.61,5.54-3.18,8.3-4.78,5.66-3.27,11.31-6.57,17-9.84,5-2.87,10-5.7,15-8.57,5.39-3.11,10.76-6.25,16.15-9.36,4.69-2.72,9.4-5.41,14.1-8.12q9.74-5.62,19.47-11.27a5.09,5.09,0,0,0,1-1,13.69,13.69,0,0,0,3.9-1.8l83.86-48.4a12.3,12.3,0,0,0,2-1.29,1.45,1.45,0,0,0,.4-1.25,10.68,10.68,0,0,0-1.1-2.12l-12.45-21.59q-3.72-6.43-7.46-12.85c-.47-.81-.76-1.78-1.89-2.21a19.27,19.27,0,0,0-4.55,2.39q-54.6,31.49-109.19,63-19.92,11.51-39.84,23c-1.36.79-2.92,1.32-3.89,2.7a3.45,3.45,0,0,0-2.2.75c-5.8,3.33-11.61,6.64-17.4,10-6.9,4-13.78,8-20.68,12-4.82,2.78-9.67,5.54-14.5,8.32q-6.63,3.8-13.25,7.62c-1.65,1-3.28,2-4.92,3a1.66,1.66,0,0,0-.56,2.46c.29.57.58,1.14.9,1.69q4.9,8.48,9.82,16.94c.55.94.82,2.1,1.86,2.71a20.79,20.79,0,0,0,1,2.16q11.26,19.56,22.58,39.09c.55,1,1.26,1.81,1.9,2.7.46,1,.84,2.06,1.39,3q4.68,8.31,9.42,16.58,10.37,18,20.78,35.91c1.43,2.47,2.83,5,4.27,7.44.39.67.75,1.42,1.64,1.6-.12,1.22.64,2.12,1.18,3.07,3.9,6.78,7.83,13.55,11.73,20.33.55,1,1,2,1.6,3a12.73,12.73,0,0,1-1.51,1.27c-2.74,1.63-5.51,3.22-8.28,4.81-5.67,3.27-11.35,6.52-17,9.83-.79.46-1.78.75-2.2,1.72a2.5,2.5,0,0,0-1.78.52q-11.61,6.72-23.24,13.44L602,837.39c-5.68,3.27-11.34,6.58-17,9.86q-9.33,5.4-18.69,10.78a18,18,0,0,1-1.74.77,1.17,1.17,0,0,1-1.41-.9c-.06-1.28-.12-2.55-.12-3.83q0-11.28,0-22.55,0-10.31,0-20.63a4.09,4.09,0,0,0-.48-2.76c.08-1.43.23-2.86.23-4.29q0-72.27,0-144.56c0-1.27-.12-2.54-.18-3.81a3.35,3.35,0,0,0,.47-2.27q0-30.11,0-60.19a12,12,0,0,0-.13-1.9,2.76,2.76,0,0,0-.46-.81c.11-1.27.31-2.53.31-3.8q0-35.43,0-70.87c0-.8,0-1.6,0-2.39a1.52,1.52,0,0,0-1.42-1.57c-1,0-1.91-.05-2.87-.05H510.6c-1,0-1.91,0-2.87.05a1.53,1.53,0,0,0-1.42,1.58c0,.64,0,1.28,0,1.92,0,1.59,0,3.19,0,4.79q0,32.56,0,65.12C506.29,586.83,506,588.6,506.64,590.3Z"/><path class="cls-2" d="M757.68,808.11c1.68,1.54,2.49,3.64,3.6,5.54,5.55,9.47,11,19,16.53,28.48q7.52,13,15,26.06c.64,1.1,1.25,2.22,1.8,3.36a4.8,4.8,0,0,1,.21,1.38c-1.71.55-3.47.3-5.2.3q-26.46,0-52.91,0c-1.91,0-3.82.09-5.72.14a5.32,5.32,0,0,1-1-1q-11.28-19.5-22.52-39c-.32-.55-.69-1.07-1-1.59a1.49,1.49,0,0,0-1.74-.37c-.71.36-1.43.71-2.12,1.1q-6.86,3.94-13.7,7.92l-21.56,12.49-22.41,13c-3,1.76-6,3.6-9.16,5.22-1.83.95-3.36,2.38-5.31,3.1-.37-.27-.73-.75-1.12-.79-1.59-.12-3.19-.15-4.78-.15H512c-1.11,0-2.23,0-3.35,0-.78.05-1.56.25-2.34.38-.08-1.1-.22-2.21-.22-3.32q0-29.36,0-58.72c0-1.27.15-2.53.23-3.8a14,14,0,0,0,4.73.37q11.2,0,22.42,0l29.09,0a4.09,4.09,0,0,1,.48,2.76q0,10.32,0,20.63,0,11.28,0,22.55c0,1.28.06,2.55.12,3.83a1.17,1.17,0,0,0,1.41.9,18,18,0,0,0,1.74-.77q9.36-5.38,18.69-10.78c5.67-3.28,11.33-6.59,17-9.86l26.58-15.33q11.63-6.7,23.24-13.44a2.5,2.5,0,0,1,1.78-.52c3,0,6.07.09,9.1.09h88.71C753.52,808.19,755.6,808.14,757.68,808.11Z"/><path class="cls-3" d="M731,873.39c1.9,0,3.81-.14,5.72-.14q26.44,0,52.91,0c1.73,0,3.49.25,5.2-.3,1.26.6,1.72,1.86,2.35,3q7,12,13.9,24.08,8.5,14.73,17,29.47c.8,1.38,1.63,2.74,2.46,4.14a7.07,7.07,0,0,0,1.47-.38c1.55-.83,3.08-1.7,4.6-2.57l176-101.61c1-.56,1.93-1.12,2.91-1.66a1.33,1.33,0,0,1,1.7.33c.27.4.54.8.78,1.21l20.36,35.29a8.74,8.74,0,0,1,.82,1.72.94.94,0,0,1-.27.84c-.9.65-1.84,1.26-2.8,1.82Q1012.9,882,989.65,895.41l-72.22,41.7H767.67c-.61-.93-1.25-1.84-1.81-2.8q-16.62-28.76-33.21-57.51A9.77,9.77,0,0,1,731,873.39Z"/><path class="cls-4" d="M908.06,699.58c.28.13.64.2.81.42,2.27,2.91,3.72,6.31,5.6,9.45a1.63,1.63,0,0,1-.41,1.75c-1.61,1-3.21,2.08-4.87,3q-11.79,6.85-23.62,13.67c-7.19,4.14-14.4,8.25-21.59,12.39s-14.07,8.17-21.12,12.25l-19.49,11.24a2.05,2.05,0,0,1-1.82.25c-2.07,0-4.15.06-6.22.06H669.54c-.48,0-.95-.05-1.43-.08-.89-.18-1.25-.93-1.64-1.6-1.44-2.47-2.84-5-4.27-7.44q-10.4-18-20.78-35.91-4.75-8.26-9.42-16.58a32.91,32.91,0,0,1-1.38-3c.63-.05,1.26-.16,1.89-.16q30.13,0,60.26,0a16.89,16.89,0,0,1,1.88.21,2.1,2.1,0,0,1,1.43,1.16q4,6.84,7.93,13.69,6.22,10.8,12.42,21.61,5.15,8.94,10.3,17.86c1.35,2.35,2.7,4.71,4.1,7a2.43,2.43,0,0,0,3.68.94c2.52-1.4,5-2.84,7.5-4.28l16.18-9.36,13.29-7.67q8.29-4.8,16.59-9.62c5-2.87,10-5.71,15-8.59q8.52-4.9,17-9.84l20.33-11.78a14.69,14.69,0,0,1,2.13-1.08,6.89,6.89,0,0,0,2.31-.31q30.21,0,60.4.05C906.16,699.35,907.11,699.5,908.06,699.58Z"/><path d="M562.57,808.13l-29.09,0q-11.21,0-22.42,0a14,14,0,0,1-4.73-.37c0-1.43-.06-2.87-.06-4.3V660c0-1.43.05-2.87.07-4.3a18.31,18.31,0,0,1,5.22-.3q23.15,0,46.29,0c1.59,0,3.18.06,4.77.09.06,1.27.18,2.54.18,3.81q0,72.29,0,144.56C562.8,805.27,562.65,806.7,562.57,808.13Z"/><path class="cls-5" d="M666.11,590.14c1-1.38,2.53-1.91,3.89-2.7q19.9-11.55,39.84-23,54.58-31.53,109.19-63a19.27,19.27,0,0,1,4.55-2.39c1.13.43,1.42,1.4,1.89,2.21q3.75,6.41,7.46,12.85l12.45,21.59a10.68,10.68,0,0,1,1.1,2.12,1.45,1.45,0,0,1-.4,1.25,12.3,12.3,0,0,1-2,1.29l-83.86,48.4a13.69,13.69,0,0,1-3.9,1.8c-1.58-.08-3.16-.22-4.75-.22q-39.39,0-78.77,0C670.56,590.27,668.34,590.19,666.11,590.14Z"/><path class="cls-6" d="M666.11,590.14c2.23.05,4.45.13,6.68.13q39.39,0,78.77,0c1.59,0,3.17.14,4.75.22a5.09,5.09,0,0,1-1,1q-9.72,5.65-19.47,11.27c-4.7,2.71-9.41,5.4-14.1,8.12-5.39,3.11-10.76,6.25-16.15,9.36-5,2.87-10,5.7-15,8.57-5.66,3.27-11.31,6.57-17,9.84-2.76,1.6-5.54,3.17-8.3,4.78-1.2.7-1.41,1.5-.69,2.8.84,1.54,1.77,3,2.62,4.57s1.75,2.68,2,4.31c-1.75.08-3.5.21-5.25.21q-26.81,0-53.61,0c-1.76,0-3.51.11-5.26.17-1-.61-1.31-1.77-1.86-2.71q-4.94-8.46-9.82-16.94c-.32-.55-.61-1.12-.9-1.69a1.66,1.66,0,0,1,.56-2.46c1.64-1,3.27-2,4.92-3q6.61-3.82,13.25-7.62c4.83-2.78,9.68-5.54,14.5-8.32,6.9-4,13.78-8,20.68-12,5.79-3.34,11.6-6.65,17.4-10A3.45,3.45,0,0,1,666.11,590.14Z"/><path class="cls-7" d="M668.11,764c.48,0,.95.08,1.43.08H815.33c2.07,0,4.15,0,6.22-.06-.45,1.15-1.53,1.55-2.48,2.1q-9.51,5.52-19,11L759.44,800.6c-1.1.63-2.18,1.31-3.27,2a1.23,1.23,0,0,0-.31,1.66c.6,1.29,1.59,2.4,1.82,3.87-2.08,0-4.16.08-6.24.08H662.73c-3,0-6.07-.06-9.1-.09.42-1,1.41-1.26,2.2-1.72,5.65-3.31,11.33-6.56,17-9.83,2.77-1.59,5.54-3.18,8.28-4.81a12.73,12.73,0,0,0,1.51-1.27c-.56-1.08-1-2.08-1.6-3-3.9-6.78-7.83-13.55-11.73-20.33C668.75,766.15,668,765.25,668.11,764Z"/><path class="cls-8" d="M767.67,937.12H917.43a15.13,15.13,0,0,1-3.61,2.24q-12.39,7.24-24.85,14.37c-7.33,4.22-14.69,8.38-22,12.61-7.05,4.07-14.05,8.21-21.09,12.28-7.32,4.23-14.68,8.39-22,12.61-5.39,3.1-10.75,6.26-16.14,9.36a4.39,4.39,0,0,1-2.77,1,16.19,16.19,0,0,1-2.64-3.8q-5-8.7-10.08-17.39c-2.86-5-5.67-10-8.55-15-4.16-7.17-8.38-14.31-12.51-21.5A51.71,51.71,0,0,1,767.67,937.12Z"/><path class="cls-9" d="M506.64,590.3c-.63-1.7-.35-3.47-.35-5.22q0-32.55,0-65.12c0-1.6,0-3.2,0-4.79,0-.64,0-1.28,0-1.92a1.53,1.53,0,0,1,1.42-1.58c1,0,1.91-.05,2.87-.05h47.89c1,0,1.91,0,2.87.05a1.52,1.52,0,0,1,1.42,1.57c0,.79,0,1.59,0,2.39q0,35.43,0,70.87c0,1.27-.2,2.53-.31,3.8Z"/><path class="cls-3" d="M506.32,873.65c.78-.13,1.56-.33,2.34-.38,1.12-.07,2.24,0,3.35,0H624.57c1.59,0,3.19,0,4.78.15.39,0,.75.52,1.12.79q-19.49,11.2-39,22.43-29.41,17-58.82,34a23.21,23.21,0,0,1-2.54,1.28,1,1,0,0,1-.85-.26,8.24,8.24,0,0,1-1.1-1.53c-6.79-11.74-13.54-23.49-20.35-35.21a10.9,10.9,0,0,1-1.6-5.89C506.34,883.87,506.3,878.76,506.32,873.65Z"/><path class="cls-10" d="M506.64,590.3h55.85a2.76,2.76,0,0,1,.46.81,12,12,0,0,1,.13,1.9q0,30.09,0,60.19a3.35,3.35,0,0,1-.47,2.27c-1.59,0-3.18-.09-4.77-.09q-23.15,0-46.29,0a18.31,18.31,0,0,0-5.22.3,21.05,21.05,0,0,1-.27-2.36q0-30.15,0-60.29C506.06,592.08,505.91,591.1,506.64,590.3Z"/><path class="cls-11" d="M605.18,655.53c1.75-.06,3.5-.17,5.26-.17q26.8,0,53.61,0c1.75,0,3.5-.13,5.25-.21a21.63,21.63,0,0,1,1.71,2.26q11.43,19.74,22.83,39.49a3.73,3.73,0,0,1,.81,2.65,16.89,16.89,0,0,0-1.88-.21q-30.13,0-60.26,0c-.63,0-1.26.11-1.89.16a31.37,31.37,0,0,1-1.91-2.7q-11.33-19.53-22.58-39.09A20.79,20.79,0,0,1,605.18,655.53Z"/><path class="cls-12" d="M908.06,699.58c-.95-.08-1.9-.23-2.85-.23q-30.19,0-60.4-.05a4.55,4.55,0,0,0-.92.22,3.32,3.32,0,0,1,1.54-1.74c2.21-1.26,4.41-2.55,6.62-3.82l36-20.77c1.23-.71,2.5-1.38,3.87-2.14a9.74,9.74,0,0,1,1.28,1.44q7.18,12.39,14.34,24.81A3.84,3.84,0,0,1,908.06,699.58Z"/></g></g></svg>