<svg xmlns="http://www.w3.org/2000/svg" viewBox="0 0 653.39 160.47"><defs><style>.cls-1{fill:#ff00f5;stroke:#000;stroke-miterlimit:10;}</style></defs><g id="Layer_2" data-name="Layer 2"><g id="Layer_1-2" data-name="Layer 1"><path class="cls-1" d="M18.11,183.26V37.81H35.73V167.64h67.61v15.62Z" transform="translate(-17.61 -25.28)"/><path class="cls-1" d="M145.67,183.26H127.2L180.61,37.81h18.18L252.2,183.26H233.74L190.27,60.82h-1.14Zm6.82-56.82h74.43v15.63H152.49Z" transform="translate(-17.61 -25.28)"/><path class="cls-1" d="M390.27,37.81V183.26h-17L294,69.06h-1.42v114.2H274.93V37.81h17L371.52,152.3h1.42V37.81Z" transform="translate(-17.61 -25.28)"/><path class="cls-1" d="M542.54,83.26H524.93a37,37,0,0,0-5.44-13.35,37.62,37.62,0,0,0-9.37-9.7,41,41,0,0,0-12.18-5.93,48.69,48.69,0,0,0-13.92-2A44.2,44.2,0,0,0,460.12,59q-10.69,6.68-17,19.68t-6.28,31.88q0,18.9,6.28,31.89t17,19.68a44.2,44.2,0,0,0,23.9,6.67,48.35,48.35,0,0,0,13.92-2,40.55,40.55,0,0,0,12.18-5.93,37.05,37.05,0,0,0,14.81-23h17.61a58.87,58.87,0,0,1-7.24,20,54.22,54.22,0,0,1-13.07,14.95,57.29,57.29,0,0,1-17.51,9.34,65.7,65.7,0,0,1-20.7,3.19q-18.61,0-33.1-9.09t-22.8-25.85q-8.31-16.77-8.31-39.78t8.31-39.77q8.31-16.76,22.8-25.85T484,35.82A65.7,65.7,0,0,1,504.72,39a57.29,57.29,0,0,1,17.51,9.34A54.38,54.38,0,0,1,535.3,63.27,58.5,58.5,0,0,1,542.54,83.26Z" transform="translate(-17.61 -25.28)"/><path class="cls-1" d="M571,183.26V37.81h87.78V53.43H588.56v49.15h65.63v15.63H588.56v49.43h71.31v15.62Z" transform="translate(-17.61 -25.28)"/><path d="M29.25,172.73V27.27H46.86V157.1h67.62v15.63Z" transform="translate(-17.61 -25.28)"/><path d="M156.8,172.73H138.34L191.75,27.27h18.18l53.41,145.46H244.87L201.4,50.28h-1.13Zm6.82-56.82h74.43v15.62H163.62Z" transform="translate(-17.61 -25.28)"/><path d="M401.4,27.27V172.73h-17L305.1,58.52h-1.42V172.73H286.06V27.27h17.05l79.54,114.49h1.43V27.27Z" transform="translate(-17.61 -25.28)"/><path d="M553.68,72.73H536.06a37,37,0,0,0-5.43-13.36,37.78,37.78,0,0,0-9.38-9.69,40.79,40.79,0,0,0-12.18-5.93,48.35,48.35,0,0,0-13.92-2,44.23,44.23,0,0,0-23.9,6.68q-10.68,6.68-17,19.67T448,100q0,18.9,6.28,31.89t17,19.67a44.23,44.23,0,0,0,23.9,6.68,48.35,48.35,0,0,0,13.92-2,40.79,40.79,0,0,0,12.18-5.93,36.93,36.93,0,0,0,14.81-23h17.62a58.6,58.6,0,0,1-7.25,20,53.91,53.91,0,0,1-13.07,15,56.7,56.7,0,0,1-17.5,9.34,65.81,65.81,0,0,1-20.71,3.2q-18.6,0-33.09-9.1t-22.8-25.85Q431,123,431,100t8.31-39.77q8.31-16.77,22.8-25.86t33.09-9.09a65.81,65.81,0,0,1,20.71,3.2,56.7,56.7,0,0,1,17.5,9.34,54.32,54.32,0,0,1,13.07,14.91A58.35,58.35,0,0,1,553.68,72.73Z" transform="translate(-17.61 -25.28)"/><path d="M582.08,172.73V27.27h87.79V42.9H599.7V92h65.62v15.63H599.7V157.1H671v15.63Z" transform="translate(-17.61 -25.28)"/></g></g></svg>